<svg width="500" height="400" viewBox="0 0 500 400" fill="none" xmlns="http://www.w3.org/2000/svg">
  <!-- Background circles -->
  <circle cx="250" cy="200" r="150" fill="#E3F2FD" opacity="0.5"/>
  <circle cx="250" cy="200" r="100" fill="#BBDEFB" opacity="0.5"/>

  <!-- Laptop -->
  <rect x="150" y="150" width="200" height="140" rx="8" fill="#4A90E2"/>
  <rect x="160" y="160" width="180" height="110" fill="white"/>
  <rect x="200" y="290" width="100" height="8" rx="4" fill="#4A90E2"/>

  <!-- Screen content (charts) -->
  <rect x="170" y="175" width="40" height="60" rx="4" fill="#50E3C2" opacity="0.8"/>
  <rect x="220" y="195" width="40" height="40" rx="4" fill="#4A90E2" opacity="0.8"/>
  <rect x="270" y="185" width="40" height="50" rx="4" fill="#F5A623" opacity="0.8"/>
  <circle cx="190" cy="245" r="8" fill="#48BB78"/>
  <circle cx="240" cy="245" r="8" fill="#F56565"/>
  <circle cx="290" cy="245" r="8" fill="#ED8936"/>

  <!-- Floating elements -->
  <circle cx="100" cy="100" r="20" fill="#50E3C2" opacity="0.6"/>
  <rect x="380" y="120" width="30" height="30" rx="6" fill="#F5A623" opacity="0.6"/>
  <circle cx="90" cy="280" r="15" fill="#4A90E2" opacity="0.6"/>
  <rect x="360" y="300" width="25" height="25" rx="5" fill="#48BB78" opacity="0.6"/>

  <!-- Decorative icons -->
  <path d="M420 80L430 70L440 80L430 90L420 80Z" fill="#4A90E2" opacity="0.7"/>
  <path d="M60 180L70 170L80 180L70 190L60 180Z" fill="#50E3C2" opacity="0.7"/>
</svg>
