<?xml version="1.0" encoding="UTF-8"?>
<svg version="1.1" xmlns="http://www.w3.org/2000/svg" width="504" height="502">
<path d="M0 0 C0.99 0.495 0.99 0.495 2 1 C3.56717702 0.7597079 5.1340415 0.51727095 6.69966519 0.2670579 C11.85573205 -0.33153687 17.07863486 -0.14402729 22.26219177 -0.14044189 C23.61801505 -0.1430283 24.97383757 -0.14604223 26.32965904 -0.1494453 C30.04547699 -0.15748648 33.76127559 -0.15930326 37.47710121 -0.16004276 C41.48891519 -0.1618984 45.50071925 -0.1694484 49.51252747 -0.17617798 C58.28150126 -0.18974235 67.05047047 -0.19578335 75.819453 -0.20018864 C81.30003185 -0.20295483 86.78060894 -0.20719293 92.2611866 -0.21169281 C107.44942203 -0.22388407 122.63765605 -0.23418297 137.82589626 -0.2375679 C139.28320757 -0.23789725 139.28320757 -0.23789725 140.76995951 -0.23823325 C142.23067269 -0.23856067 142.23067269 -0.23856067 143.72089523 -0.2388947 C145.69405711 -0.23933816 147.66721898 -0.23978472 149.64038086 -0.24023438 C151.10850196 -0.24056652 151.10850196 -0.24056652 152.60628206 -0.24090537 C168.45097215 -0.24484994 184.29561616 -0.26229416 200.14028846 -0.2855939 C216.42632788 -0.30934833 232.71234421 -0.32177165 248.99840122 -0.32293582 C258.13483349 -0.3238504 267.27120572 -0.32954757 276.40762138 -0.34775543 C284.19063678 -0.36321189 291.97357361 -0.36824442 299.75660145 -0.36001733 C303.72213828 -0.35613007 307.68751716 -0.35694529 311.65303421 -0.37107468 C340.43449237 -0.46803031 340.43449237 -0.46803031 352.23431492 2.35628128 C355.17604249 3.15112841 355.17604249 3.15112841 359 3 C359 3.66 359 4.32 359 5 C362.96 5.495 362.96 5.495 367 6 C367 6.66 367 7.32 367 8 C370.96 8.99 370.96 8.99 375 10 C375 10.66 375 11.32 375 12 C376.32 11.67 377.64 11.34 379 11 C379.0928125 11.928125 379.0928125 11.928125 379.1875 12.875 C379.80368419 15.21292245 379.80368419 15.21292245 382.1875 16.0625 C383.115625 16.371875 384.04375 16.68125 385 17 C389.81064142 18.94472738 392.37302007 21.28410317 395.55859375 25.2265625 C398.1207413 28.37890664 400.88105327 31.20075234 404.1875 33.5625 C406.29223751 35.23177458 406.81060122 36.6084132 408 39 C409.06402031 40.51376085 410.14936182 42.01265111 411.25 43.5 C416.89622306 51.54762499 420.87457598 59.87207447 423.75 69.25 C423.94867676 69.8797876 424.14735352 70.5095752 424.35205078 71.15844727 C429.08628499 87.62684809 428.28665102 104.96570513 428.24679029 121.91537499 C428.24014146 125.6877629 428.24517723 129.46013902 428.24867249 133.23252869 C428.25368577 140.60181658 428.2481091 147.97105919 428.23882218 155.34034145 C428.22837899 163.93996099 428.22850995 172.53957105 428.22899476 181.13919574 C428.2294942 196.49336003 428.22036619 211.84750341 428.20581055 227.20166016 C428.19172558 242.06722393 428.1846399 256.93276931 428.18530273 271.79833984 C428.18534269 272.71404544 428.18538265 273.62975104 428.18542381 274.57320529 C428.18546417 275.48739897 428.18550452 276.40159265 428.1855461 277.34348917 C428.18623778 294.31573488 428.18033542 311.28797284 428.17139288 328.26021603 C428.16838952 334.24062136 428.16731487 340.22102527 428.16686058 346.20143127 C428.16617501 353.49929177 428.16166297 360.79713922 428.15252777 368.09499419 C428.14794384 371.81143108 428.14485155 375.5278514 428.14612198 379.24429131 C428.15379442 407.81505532 428.15379442 407.81505532 427 421 C426.34 421 425.68 421 425 421 C424.896875 422.258125 424.79375 423.51625 424.6875 424.8125 C424.07387835 430.32632879 422.94310764 435.79358718 421 441 C420.34 441.33 419.68 441.66 419 442 C418.3424315 443.74814281 418.3424315 443.74814281 417.8125 445.875 C415.95519948 451.82027641 412.81127562 457.08666878 409 462 C408.34 462 407.68 462 407 462 C406.9175 462.94875 406.835 463.8975 406.75 464.875 C406.37875 466.421875 406.37875 466.421875 406 468 C404.25 469.0625 404.25 469.0625 402 470 C401.175 470.825 400.35 471.65 399.5 472.5 C397 475 397 475 394.8125 476.0625 C392.44477298 477.28718639 392.14410728 478.64027874 391 481 C388.39680342 483.35127433 387.57870074 484 384 484 C383.67 484.99 383.34 485.98 383 487 C380.59714397 488.4554613 378.26961054 489.7185291 375.75 490.9375 C374.67649292 491.46537109 374.67649292 491.46537109 373.58129883 492.00390625 C366.62041996 495.33735007 358.81628916 499 351 499 C350.67 499.66 350.34 500.32 350 501 C349.67 500.67 349.34 500.34 349 500 C347.09112579 500.25691854 345.19067109 500.5767402 343.29571438 500.92162704 C336.23656142 502.0636849 329.40759847 502.28030384 322.26856995 502.25396729 C320.93501569 502.25627799 319.6014627 502.25945856 318.26791233 502.26342177 C314.6415687 502.2716949 311.01533168 502.26767897 307.3889879 502.26144934 C303.46320622 502.25689484 299.53744195 502.2639234 295.61166382 502.26940918 C287.93583102 502.27827327 280.26003748 502.27639445 272.58420319 502.2705839 C266.34178118 502.2660553 260.09937013 502.26545968 253.85694695 502.26763153 C252.96630875 502.267938 252.07567056 502.26824446 251.15804334 502.26856022 C249.34835251 502.26919971 247.53866169 502.26984814 245.72897088 502.2705054 C228.78399549 502.27620004 211.83904179 502.26966459 194.89406996 502.25890467 C180.37687888 502.24997149 165.8597198 502.25152096 151.3425293 502.26074219 C134.45707054 502.2714628 117.57163077 502.27564918 100.68616909 502.26951766 C98.883069 502.26888061 97.07996891 502.26825187 95.27686882 502.26763153 C94.38986601 502.26732298 93.50286321 502.26701443 92.58898153 502.26669653 C86.35970151 502.26497484 80.13043361 502.26787333 73.90115547 502.27259064 C66.30159005 502.27821948 58.7020659 502.27664116 51.10250515 502.26602915 C47.23037283 502.26079905 43.35830915 502.25866987 39.48617744 502.26532745 C35.93248703 502.27134477 32.37892802 502.26791794 28.82524931 502.25737235 C26.95031503 502.25412639 25.07537142 502.26055725 23.20044714 502.26748681 C15.95741434 502.23449451 9.02100824 501.57935222 1.86825889 500.42857146 C-1.01116019 499.92611093 -1.01116019 499.92611093 -4 500 C-4 499.34 -4 498.68 -4 498 C-4.99 498 -5.98 498 -7 498 C-7.33 498.66 -7.66 499.32 -8 500 C-8.5878125 499.2884375 -8.5878125 499.2884375 -9.1875 498.5625 C-11.40808374 496.64820367 -13.13375709 496.38733012 -16 496 C-16 495.34 -16 494.68 -16 494 C-16.72960938 493.88785156 -17.45921875 493.77570313 -18.2109375 493.66015625 C-21.10647337 492.97479832 -23.08823858 491.9674025 -25.625 490.4375 C-29.0421302 488.35486137 -29.0421302 488.35486137 -33 488 C-33.495 486.515 -33.495 486.515 -34 485 C-34.99 485 -35.98 485 -37 485 C-37.495 483.515 -37.495 483.515 -38 482 C-39.48863485 480.3736385 -39.48863485 480.3736385 -41.3125 478.875 C-41.90675781 478.35679687 -42.50101563 477.83859375 -43.11328125 477.3046875 C-44.92251282 475.8786088 -44.92251282 475.8786088 -47.10546875 475.53125 C-49 475 -49 475 -51 471.625 C-51.32871094 470.98949219 -51.65742187 470.35398437 -51.99609375 469.69921875 C-53.28064712 467.52497472 -54.98811455 466.49268921 -57 465 C-57.474375 464.030625 -57.94875 463.06125 -58.4375 462.0625 C-59.79417445 458.85733656 -59.79417445 458.85733656 -62.625 457 C-65.68695573 454.42151096 -65.53308377 452.89096862 -66 449 C-66.96887581 446.98473831 -67.9641321 444.98166034 -69 443 C-69 442.34 -69 441.68 -69 441 C-69.66 440.67 -70.32 440.34 -71 440 C-71 438.68 -71 437.36 -71 436 C-71.66 435.67 -72.32 435.34 -73 435 C-76.1124364 425.97998984 -76.42972276 416.86915121 -76.38095093 407.42663574 C-76.38441604 406.00162127 -76.38918629 404.5766095 -76.39513266 403.15160322 C-76.40755521 399.27245533 -76.40151261 395.39353134 -76.39217401 391.51438308 C-76.38534764 387.31662658 -76.39588241 383.11890687 -76.40411377 378.92115784 C-76.41741524 370.71223986 -76.41458941 362.50340444 -76.40587585 354.2944833 C-76.39908555 347.6196501 -76.39818839 340.94483994 -76.4014473 334.27000427 C-76.401907 333.31801941 -76.40236669 332.36603455 -76.40284032 331.38520166 C-76.40379955 329.45093111 -76.40477219 327.51666055 -76.4057581 325.58239001 C-76.41430149 307.46809399 -76.40449438 289.3538436 -76.388357 271.23955506 C-76.37495478 255.71518183 -76.37728317 240.19087592 -76.39111328 224.66650391 C-76.40718769 206.61459321 -76.41347761 188.56272246 -76.40427649 170.51080561 C-76.4033209 168.58386899 -76.40237778 166.65693236 -76.4014473 164.72999573 C-76.40098447 163.78204178 -76.40052164 162.83408784 -76.40004479 161.85740802 C-76.39746048 155.19484079 -76.40181382 148.53229901 -76.40888596 141.86973572 C-76.41732185 133.74421435 -76.41497702 125.61877986 -76.39904372 117.49326837 C-76.39118905 113.35187398 -76.38802125 109.21062417 -76.39799118 105.06923103 C-76.40699712 101.27066736 -76.40190934 97.4723809 -76.38605852 93.67384201 C-76.38117364 91.66495237 -76.39085414 89.65604315 -76.40123022 87.64717436 C-76.34925293 79.54395179 -75.66153897 71.71328485 -73 64 C-72.01 63.505 -72.01 63.505 -71 63 C-70.86722656 62.30519531 -70.73445313 61.61039063 -70.59765625 60.89453125 C-69.82780414 57.1660318 -68.17906969 54.03614191 -66.4375 50.6875 C-66.10814453 50.04232422 -65.77878906 49.39714844 -65.43945312 48.73242188 C-64.63175745 47.15214772 -63.81662387 45.57567895 -63 44 C-62.34 44 -61.68 44 -61 44 C-61.495 42.515 -61.495 42.515 -62 41 C-61.01 40.34 -60.02 39.68 -59 39 C-58.67 38.01 -58.34 37.02 -58 36 C-57.01 36 -56.02 36 -55 36 C-54.938125 35.443125 -54.87625 34.88625 -54.8125 34.3125 C-53.6519231 31.00931958 -51.59786554 29.28105267 -49 27 C-48.34 27 -47.68 27 -47 27 C-46.71125 26.38125 -46.4225 25.7625 -46.125 25.125 C-45 23 -45 23 -43 21 C-42.01 21 -41.02 21 -40 21 C-40 20.34 -40 19.68 -40 19 C-39.01 19 -38.02 19 -37 19 C-37 18.34 -37 17.68 -37 17 C-35.35 16.34 -33.7 15.68 -32 15 C-32 14.34 -32 13.68 -32 13 C-30.948125 12.62875 -29.89625 12.2575 -28.8125 11.875 C-24.97721744 10.45879142 -21.36045229 8.73014616 -17.6875 6.9375 C-11.85601739 4.19207069 -6.38498462 2.7421425 0 2 C0 1.34 0 0.68 0 0 Z " fill="#152747" transform="translate(76,0)"/>
<path d="M0 0 C1.21319219 -0.0034177 2.42638439 -0.0068354 3.67633998 -0.01035666 C7.01756655 -0.0157771 10.35784141 -0.00338923 13.6989522 0.01675558 C17.31162434 0.0341158 20.92426989 0.02817785 24.53697205 0.02514648 C30.78745527 0.02305451 37.03777078 0.03554746 43.28821182 0.05809784 C52.32514279 0.09068002 61.3619931 0.1010312 70.39897643 0.10604981 C85.06273226 0.11479273 99.72639881 0.14138103 114.3901062 0.17926025 C128.63001053 0.21600634 142.86989056 0.24430537 157.10983276 0.2612915 C158.42763745 0.26286784 158.42763745 0.26286784 159.77206446 0.26447603 C164.17965899 0.26969638 168.58725368 0.27475117 172.99484849 0.27972364 C209.52933335 0.32115444 246.06371671 0.39157549 282.59811401 0.48101807 C279.84660753 3.23798699 277.09937666 5.98865029 274.25045776 8.64508057 C273.65112427 9.20445313 273.05179077 9.76382568 272.43429565 10.34014893 C271.80773071 10.92288574 271.18116577 11.50562256 270.53561401 12.10601807 C269.8787561 12.71775879 269.22189819 13.32949951 268.5451355 13.95977783 C252.83258762 28.5770301 252.83258762 28.5770301 246.78561401 33.79351807 C242.09927155 37.85108502 237.61253028 42.12323657 233.09152222 46.36260986 C229.34406312 49.87038138 225.55764799 53.3102507 221.66842651 56.66070557 C217.11532117 60.66400196 212.70341677 64.82748268 208.25631714 68.94781494 C205.22357487 71.7519406 202.17470201 74.53842958 199.12741089 77.32672119 C196.49110498 79.7407299 193.86084279 82.16095823 191.23873901 84.59039307 C190.67284058 85.11439697 190.10694214 85.63840088 189.52389526 86.17828369 C188.45270167 87.17082321 187.38230916 88.16422844 186.31295776 89.15875244 C183.48878432 91.77494412 180.62663962 94.3364057 177.71920776 96.85992432 C173.51415876 100.52419541 169.45620287 104.32988876 165.41061401 108.16851807 C156.60072285 116.49245267 147.7553831 124.77295295 138.72311401 132.85601807 C132.58149344 138.36264072 126.57401219 144.01207898 120.55368042 149.65045166 C117.40524501 152.59763877 114.25152492 155.53915674 111.09811401 158.48101807 C107.31125826 162.01436046 103.52525309 165.5485966 99.74264526 169.08648682 C94.07122757 174.38898495 88.39299571 179.68190992 82.66061401 184.91851807 C77.84114999 189.32656443 73.05512573 193.76896883 68.28561401 198.23101807 C67.62762817 198.84517578 66.96964233 199.4593335 66.29171753 200.09210205 C63.17861339 203.01007164 60.11148398 205.95619774 57.11764526 208.99664307 C54.07555353 212.06320548 50.87975656 214.89987419 47.61129761 217.72174072 C44.29707472 220.617968 41.10901306 223.64567985 37.91061401 226.66851807 C32.99470904 231.29659589 28.0677044 235.91061662 23.09811401 240.48101807 C16.92878818 246.15971096 10.80974541 251.89101843 4.69967651 257.63336182 C2.01520669 260.15538746 -0.67752018 262.66803618 -3.37844849 265.17242432 C-11.45779831 272.67879883 -19.34822599 280.33714316 -27.08328247 288.19927979 C-27.76463257 288.88908936 -28.44598267 289.57889893 -29.14797974 290.28961182 C-29.75311401 290.90634766 -30.35824829 291.5230835 -30.98171997 292.1585083 C-32.40188599 293.48101807 -32.40188599 293.48101807 -33.40188599 293.48101807 C-33.50381677 286.1162303 -33.57357358 278.75162638 -33.62161255 271.3862915 C-33.64165202 268.8839437 -33.66889121 266.38164228 -33.7036438 263.87945557 C-33.75249839 260.2699637 -33.77493244 256.66109428 -33.79251099 253.05133057 C-33.81315613 251.94363312 -33.83380127 250.83593567 -33.85507202 249.69467163 C-33.85766922 240.57947124 -32.03329428 232.46527723 -25.52688599 225.73101807 C-24.35706177 224.50705322 -24.35706177 224.50705322 -23.16360474 223.25836182 C-22.25223755 222.34183838 -21.34087036 221.42531494 -20.40188599 220.48101807 C-19.26232475 219.31588652 -18.12301679 218.15050723 -16.98391724 216.98492432 C-11.57856052 211.49053647 -6.14358578 206.10032471 -0.25735474 201.11773682 C2.76910958 198.44807671 5.55021345 195.53641129 8.38327026 192.66461182 C10.37470862 190.70127136 12.41113979 188.86022137 14.53561401 187.04351807 C18.62729943 183.53752122 22.36778284 179.72639916 26.15280151 175.89508057 C28.8893488 173.19350513 31.74790768 170.69023072 34.66842651 168.19195557 C37.44056402 165.73406847 40.0036209 163.08478203 42.60202026 160.44586182 C44.51918578 158.55871063 46.49386723 156.79416432 48.53561401 155.04351807 C52.26428274 151.84021949 55.70750698 148.414413 59.12936401 144.88726807 C61.83603588 142.24911954 64.66096996 139.78739652 67.51461792 137.31060791 C70.75830322 134.46221587 73.89647009 131.5061027 77.03561401 128.54351807 C78.05933105 127.58070923 78.05933105 127.58070923 79.10372925 126.59844971 C81.26982672 124.56068432 83.43409542 122.52099081 85.59811401 120.48101807 C88.45194062 117.79315685 91.30626665 115.10582625 94.16061401 112.41851807 C94.86871216 111.75166992 95.5768103 111.08482178 96.30636597 110.39776611 C102.76372866 104.31907364 109.24534566 98.26669601 115.73336792 92.22076416 C117.66304916 90.42043573 119.58988319 88.61710198 121.51608276 86.81304932 C127.61222321 81.10623454 133.72095592 75.42187505 139.95089722 69.86065674 C142.95142041 67.16342354 145.92709346 64.44027007 148.89889526 61.71148682 C149.44952637 61.20629517 150.00015747 60.70110352 150.56747437 60.18060303 C151.91124829 58.94765581 153.25471326 57.71437188 154.59811401 56.48101807 C137.12503683 56.36380796 119.65208372 56.27584662 102.17870235 56.22195721 C94.06405877 56.19626155 85.94966056 56.1612782 77.83517456 56.1038208 C70.756089 56.05371914 63.6771813 56.0216644 56.59792334 56.01057559 C52.85529478 56.00410164 49.11317467 55.98907108 45.37071037 55.95236778 C23.8998769 55.37377543 23.8998769 55.37377543 3.59811401 61.48101807 C2.6694603 61.9371196 1.74080658 62.39322113 0.78401184 62.86314392 C-12.18898563 69.65669659 -22.88679202 82.32504203 -31.27297974 94.04742432 C-31.6455188 94.52051025 -32.01805786 94.99359619 -32.40188599 95.48101807 C-32.73188599 95.48101807 -33.06188599 95.48101807 -33.40188599 95.48101807 C-33.49490114 86.0053898 -33.56580985 76.52992067 -33.60913467 67.0539341 C-33.62993704 62.6529989 -33.65811875 58.25237794 -33.7036438 53.85162354 C-33.74736592 49.59813763 -33.77107826 45.34495243 -33.78139496 41.091259 C-33.78873934 39.47506355 -33.80308036 37.85888303 -33.82480621 36.24281693 C-33.96224404 25.58792101 -33.73184289 15.96868311 -26.27688599 7.60601807 C-18.52549443 0.81522807 -9.95887739 -0.10372252 0 0 Z " fill="#FDFDFD" transform="translate(128.40188598632813,94.51898193359375)"/>
<path d="M0 0 C0.33 0 0.66 0 1 0 C1.09286877 10.16207617 1.1638505 20.32405061 1.20724869 30.48646545 C1.22808256 35.20581095 1.25632305 39.92486511 1.30175781 44.64404297 C1.34536595 49.20225876 1.36916868 53.76019514 1.37950897 58.31860352 C1.38687356 60.05367427 1.40125483 61.78873053 1.42292023 63.52368164 C1.45215412 65.96273291 1.45594781 68.40064419 1.45410156 70.83984375 C1.47567322 71.90476295 1.47567322 71.90476295 1.49768066 72.99119568 C1.44672509 79.25299236 -0.7068694 84.28803276 -4.7109375 89.0234375 C-5.53464844 89.69246094 -5.53464844 89.69246094 -6.375 90.375 C-6.91898437 90.83648437 -7.46296875 91.29796875 -8.0234375 91.7734375 C-14.06141712 95.52032604 -20.18596836 95.27891404 -27.04769897 95.24050903 C-28.16355177 95.24221788 -29.27940456 95.24392673 -30.42907107 95.24568737 C-34.16941341 95.24898254 -37.90957651 95.2379779 -41.64990234 95.22705078 C-44.33056035 95.22648667 -47.01120736 95.22671515 -49.69186401 95.22793579 C-55.46381868 95.22898368 -61.23572808 95.22271711 -67.00767136 95.21146011 C-75.35289039 95.19519508 -83.69808757 95.18999608 -92.04332073 95.18748413 C-105.58341763 95.1831086 -119.12349041 95.16980336 -132.66357422 95.15087891 C-145.8152657 95.13251643 -158.96695063 95.11836172 -172.11865234 95.10986328 C-173.33498203 95.10907511 -173.33498203 95.10907511 -174.57588403 95.10827102 C-178.64392756 95.10566091 -182.71197114 95.1031335 -186.78001475 95.10064721 C-220.52002733 95.07991914 -254.2600107 95.04469748 -288 95 C-287.04112917 93.87035461 -286.08070809 92.74202498 -285.11962891 91.61425781 C-284.58496002 90.98577942 -284.05029114 90.35730103 -283.49942017 89.70977783 C-281.90238213 87.88868706 -280.23741752 86.29776251 -278.375 84.75 C-275.4257328 82.24452729 -272.55151325 79.67862256 -269.71606445 77.04467773 C-264.44466868 72.14878787 -259.04733672 67.48674373 -253.4375 62.9765625 C-251.47087144 61.38182844 -249.57312121 59.75013099 -247.6875 58.0625 C-230.87105629 43.68264314 -214.43531495 35.68555574 -192.05371094 35.72875977 C-190.54492412 35.72436689 -189.03613972 35.71906269 -187.52735901 35.71292114 C-184.2900825 35.70146215 -181.05287109 35.69596474 -177.81557465 35.69503975 C-172.68682473 35.69309 -167.55820829 35.67498647 -162.42950439 35.65428162 C-149.68963289 35.60521356 -136.94972524 35.574255 -124.20977783 35.55297852 C-114.30772368 35.5364158 -104.40578459 35.51348978 -94.50380731 35.46995777 C-89.41575372 35.44829497 -84.32791934 35.4401129 -79.23982286 35.44235051 C-76.06087434 35.44067217 -72.88206642 35.42655297 -69.70316887 35.40913773 C-68.24078593 35.40358484 -66.77837325 35.40300942 -65.31598854 35.40807533 C-53.49237579 35.44470692 -42.68825106 33.95162351 -32.0625 28.5625 C-31.39065674 28.22250977 -30.71881348 27.88251953 -30.02661133 27.53222656 C-18.77822316 21.50720645 -10.41112199 11.63289124 -2.046875 2.203125 C-1.37140625 1.47609375 -0.6959375 0.7490625 0 0 Z " fill="#FCFCFC" transform="translate(401,294)"/>
<path d="M0 0 C0.99 0.495 0.99 0.495 2 1 C-7.39271567 11.27377443 -17.10327814 21.21363323 -26.9375 31.0625 C-27.52254303 31.65004059 -28.10758606 32.23758118 -28.71035767 32.84292603 C-30.41725462 34.55579669 -32.12789927 36.26483178 -33.83984375 37.97265625 C-34.3416214 38.47641785 -34.84339905 38.98017944 -35.36038208 39.49920654 C-38.0768092 42.1984527 -40.86066096 44.76593973 -43.76586914 47.26147461 C-48.7158961 51.55397542 -53.29726971 56.19101827 -57.90625 60.84375 C-59.31862932 62.2619165 -60.73101161 63.68008007 -62.14356232 65.09807587 C-64.59787501 67.56323132 -67.04884533 70.03170509 -69.5 72.5 C-72.42937203 75.44985631 -75.35936285 78.39907839 -78.29333496 81.34436035 C-80.11220613 83.17068429 -81.92882652 84.99925361 -83.74279785 86.83044434 C-84.5772644 87.66821411 -85.41173096 88.50598389 -86.27148438 89.36914062 C-86.99348022 90.09637329 -87.71547607 90.82360596 -88.45935059 91.57287598 C-90.46104587 93.48512828 -92.48646721 95.2878656 -94.58670044 97.08670044 C-100.09457496 101.87587871 -105.19658688 107.07281304 -110.34130859 112.24365234 C-111.46215799 113.36642444 -112.58323788 114.48896647 -113.70452881 115.61129761 C-116.10347817 118.01338953 -118.50086985 120.41702121 -120.89704514 122.82188034 C-124.68442081 126.62284403 -128.47566684 130.41993156 -132.26748657 134.21646118 C-140.30630065 142.26633911 -148.34085529 150.32046224 -156.375 158.375 C-165.07036332 167.09239342 -173.76646477 175.80904314 -182.4674288 184.52084696 C-186.23911802 188.2975251 -190.00835448 192.07662929 -193.77574611 195.85759425 C-196.11239533 198.20168063 -198.45109459 200.54371326 -200.79036713 202.88518143 C-201.87728166 203.97397409 -202.96332838 205.06363383 -204.0484581 206.15420532 C-205.52517088 207.63809268 -207.00490073 209.11890359 -208.48544312 210.59896851 C-209.72810472 211.84496102 -209.72810472 211.84496102 -210.99587059 213.11612511 C-214.02875934 215.96703031 -215.72935268 216.12211233 -219.7890625 216.09765625 C-220.73007813 216.09443359 -221.67109375 216.09121094 -222.640625 216.08789062 C-223.62546875 216.07951172 -224.6103125 216.07113281 -225.625 216.0625 C-226.61757812 216.05798828 -227.61015625 216.05347656 -228.6328125 216.04882812 C-231.0886016 216.03702145 -233.54427104 216.020554 -236 216 C-231.75109272 210.86974044 -227.27012833 206.26147531 -222.375 201.75 C-221.6727832 201.09741211 -220.97056641 200.44482422 -220.24707031 199.77246094 C-218.16888631 197.84373213 -216.08557285 195.92073376 -214 194 C-213.15066895 193.21689453 -213.15066895 193.21689453 -212.28417969 192.41796875 C-208.8652754 189.26858702 -205.4335818 186.13337793 -202 183 C-199.9990147 181.16774073 -197.99951705 179.33386127 -196 177.5 C-195.00002701 176.58330387 -194.00002704 175.66663717 -193 174.75 C-192.505 174.29625 -192.01 173.8425 -191.5 173.375 C-187 169.25 -187 169.25 -185.50073242 167.87573242 C-184.49820998 166.95671274 -183.49576889 166.0376043 -182.4934082 165.1184082 C-180.03264846 162.86201326 -177.57030336 160.60741616 -175.10546875 158.35546875 C-169.45393315 153.18813432 -163.83894202 147.98501026 -158.25 142.75 C-153.9701226 138.74250261 -149.66536773 134.79128103 -145.21875 130.96875 C-141.92043532 128.04207641 -138.71620168 125.01636002 -135.5 122 C-131.13708242 117.90817633 -126.75505357 113.86837938 -122.21875 109.96875 C-118.27995968 106.47376704 -114.46057576 102.84801661 -110.62890625 99.23632812 C-107.48849941 96.28514242 -104.31835741 93.38616395 -101.0625 90.5625 C-96.7621305 86.82522447 -92.62836452 82.9253302 -88.5 79 C-83.70185352 74.43782794 -78.85955053 69.95922302 -73.85742188 65.62109375 C-71.19248632 63.29522991 -68.59807691 60.90039714 -66 58.5 C-62.70047223 55.46031004 -59.39048393 52.43841941 -56 49.5 C-52.12182987 46.13677362 -48.34472189 42.66664329 -44.56689453 39.19189453 C-40.54440955 35.49353802 -36.4947933 31.82687215 -32.42578125 28.1796875 C-30.7924607 26.71206614 -29.16494457 25.23796213 -27.54296875 23.7578125 C-22.39137717 19.06864725 -17.11046658 14.60024219 -11.6953125 10.21875 C-7.69501308 6.9257499 -3.83890997 3.47871594 0 0 Z " fill="#F8F9FA" transform="translate(420,109)"/>
<path d="M0 0 C3.13729599 0.78763435 3.13729599 0.78763435 6.99658012 0.64694595 C6.99658012 1.30694595 6.99658012 1.96694595 6.99658012 2.64694595 C7.65658012 2.64694595 8.31658012 2.64694595 8.99658012 2.64694595 C9.32658012 3.30694595 9.65658012 3.96694595 9.99658012 4.64694595 C11.64021146 5.3685402 13.30708398 6.04046016 14.99658012 6.64694595 C11.18651592 7.91696736 9.76116995 7.11494946 5.99658012 5.83444595 C-4.65699944 2.21797348 -14.80969204 1.35138306 -26.0061512 1.36847305 C-27.39333141 1.36346035 -28.78050872 1.35758173 -30.16768199 1.35092032 C-33.95097004 1.33522408 -37.73418361 1.33169541 -41.51750028 1.33027172 C-45.6080276 1.32655941 -49.69851492 1.31139491 -53.78901863 1.29765701 C-60.86663768 1.27543763 -67.94424241 1.26039243 -75.02188873 1.25028992 C-85.25483522 1.23567311 -95.48773177 1.21012793 -105.72064886 1.18195863 C-122.32490238 1.13654508 -138.92916311 1.09990784 -155.53344917 1.06882095 C-171.65813653 1.03861311 -187.78280626 1.00425259 -203.90747261 0.96432877 C-205.39962246 0.96063644 -205.39962246 0.96063644 -206.92191675 0.95686953 C-211.91261974 0.94449449 -216.90332252 0.93203804 -221.89402521 0.91954112 C-263.2637989 0.81605477 -304.6335943 0.7268247 -346.00341988 0.64694595 C-346.00341988 0.31694595 -346.00341988 -0.01305405 -346.00341988 -0.35305405 C-339.32592572 -1.56953087 -332.71029073 -1.51484152 -325.93777657 -1.53145981 C-324.60328873 -1.53818052 -323.26880295 -1.54531898 -321.93431938 -1.55283761 C-318.27745386 -1.57218286 -314.62058807 -1.58543969 -310.96369267 -1.5976398 C-307.01524418 -1.61184563 -303.0668228 -1.63161918 -299.11839485 -1.65058517 C-290.48779635 -1.69091559 -281.85717924 -1.72386684 -273.2265439 -1.75517178 C-267.83171913 -1.77474379 -262.43690038 -1.79571828 -257.04208183 -1.81692886 C-242.08976436 -1.87542829 -227.13744226 -1.93200254 -212.18509293 -1.98177338 C-211.22864167 -1.98496055 -210.27219042 -1.98814773 -209.28675579 -1.99143149 C-208.32807721 -1.99462472 -207.36939862 -1.99781794 -206.38166916 -2.00110793 C-204.43917981 -2.00758012 -202.49669046 -2.01405565 -200.55420113 -2.02053452 C-199.59066911 -2.02374656 -198.6271371 -2.0269586 -197.63440715 -2.03026798 C-182.03931895 -2.08262027 -166.44432057 -2.1485928 -150.84931125 -2.22045335 C-134.81755526 -2.29412676 -118.78578778 -2.35625246 -102.75394237 -2.40695691 C-93.76109437 -2.43566737 -84.76832484 -2.4692518 -75.77554893 -2.51561356 C-68.11410152 -2.55505919 -60.45270384 -2.58388285 -52.79116876 -2.59924117 C-48.88826433 -2.60737515 -44.98554082 -2.6202724 -41.08271408 -2.64675331 C-12.78533625 -2.83305236 -12.78533625 -2.83305236 0 0 Z " fill="#070C1C" transform="translate(428.00341987609863,2.3530540466308594)"/>
<path d="M0 0 C0 3.56144991 -0.44542119 3.82319873 -2.8581543 6.24633789 C-3.4826799 6.88031998 -4.10720551 7.51430206 -4.75065613 8.16749573 C-5.77706963 9.18480019 -5.77706963 9.18480019 -6.82421875 10.22265625 C-7.52263382 10.9239415 -8.22104889 11.62522675 -8.94062805 12.34776306 C-10.42246736 13.83164644 -11.90811223 15.31173765 -13.3972168 16.78833008 C-15.67132152 19.04643535 -17.92907072 21.31999774 -20.18554688 23.59570312 C-21.62664368 25.03481662 -23.0686713 26.47299874 -24.51171875 27.91015625 C-25.52295052 28.93049706 -25.52295052 28.93049706 -26.55461121 29.97145081 C-29.96478706 33.33126128 -32.51460888 35.26934156 -37 37 C-39.29194524 38.87507609 -41.33078583 40.98123856 -43.39453125 43.1015625 C-43.98674973 43.69802582 -44.5789682 44.29448914 -45.18913269 44.9090271 C-47.07077354 46.80740103 -48.94168823 48.71595933 -50.8125 50.625 C-52.08980001 51.91735373 -53.36778747 53.20902839 -54.64648438 54.5 C-57.77234164 57.65885529 -60.88862334 60.8268834 -64 64 C-64 59.9033941 -62.51985701 59.13980101 -59.65722656 56.26904297 C-59.19548035 55.80203979 -58.73373413 55.33503662 -58.25799561 54.85388184 C-56.72634595 53.30900643 -55.18395403 51.77538898 -53.640625 50.2421875 C-52.57359572 49.17313789 -51.50701216 48.10364323 -50.44085693 47.03372192 C-48.20272649 44.79116435 -45.95924902 42.55413304 -43.71191406 40.32080078 C-40.83214605 37.45810408 -37.96602697 34.58217971 -35.1037941 31.70196342 C-32.90274807 29.49007249 -30.69460091 27.28538238 -28.4842453 25.082798 C-27.42469779 24.02525161 -26.36737394 22.96547248 -25.31232452 21.90343857 C-23.83547403 20.41896443 -22.34933787 18.94445572 -20.86035156 17.47216797 C-20.01651917 16.63072235 -19.17268677 15.78927673 -18.30328369 14.92233276 C-16.03911165 13.03264279 -14.83969804 12.46936099 -12 12 C-10.39755592 10.80594291 -10.39755592 10.80594291 -8.984375 9.27734375 C-8.45585937 8.73916016 -7.92734375 8.20097656 -7.3828125 7.64648438 C-6.84398437 7.08251953 -6.30515625 6.51855469 -5.75 5.9375 C-5.19570313 5.36966797 -4.64140625 4.80183594 -4.0703125 4.21679688 C-2.70665786 2.81787531 -1.35239583 1.40980886 0 0 Z " fill="#1D2D49" transform="translate(394,140)"/>
<path d="M0 0 C-3.19899424 2.13266283 -5.67308584 2.83502828 -9.375 3.8125 C-22.916649 7.63193946 -36.61428906 12.61428906 -46.8046875 22.8046875 C-47.19914062 23.19914062 -47.59359375 23.59359375 -48 24 C-48.66 24 -49.32 24 -50 24 C-50 24.66 -50 25.32 -50 26 C-50.99 26.33 -51.98 26.66 -53 27 C-53.33 26.01 -53.66 25.02 -54 24 C-53.34 24 -52.68 24 -52 24 C-51.71125 23.38125 -51.4225 22.7625 -51.125 22.125 C-50 20 -50 20 -48 18 C-47.01 18 -46.02 18 -45 18 C-45 17.34 -45 16.68 -45 16 C-44.01 16 -43.02 16 -42 16 C-42 15.34 -42 14.68 -42 14 C-40.35 13.34 -38.7 12.68 -37 12 C-37 11.34 -37 10.68 -37 10 C-35.948125 9.62875 -34.89625 9.2575 -33.8125 8.875 C-27.72154905 6.60323992 -21.87706651 3.76831334 -16 1 C-15.505 1.99 -15.505 1.99 -15 3 C-14.33613281 2.7834375 -13.67226562 2.566875 -12.98828125 2.34375 C-12.10527344 2.0653125 -11.22226563 1.786875 -10.3125 1.5 C-9.44238281 1.2215625 -8.57226562 0.943125 -7.67578125 0.65625 C-5.00608323 0.00149195 -2.73603316 -0.11831495 0 0 Z " fill="#091224" transform="translate(81,3)"/>
<path d="M0 0 C0.9075 0.804375 1.815 1.60875 2.75 2.4375 C7.95077899 6.90442674 13.49322456 10.92234541 19 15 C22.94488349 17.95319374 22.94488349 17.95319374 24.76171875 19.49609375 C27.89013993 21.59808704 31.29057304 22.79096404 34.8125 24.0625 C35.49892578 24.31837891 36.18535156 24.57425781 36.89257812 24.83789062 C41.21615897 26.42906655 45.5560412 27.78589884 50 29 C48.68 29.99 47.36 30.98 46 32 C45.505 30.515 45.505 30.515 45 29 C44.01 29 43.02 29 42 29 C41.67 29.66 41.34 30.32 41 31 C40.608125 30.525625 40.21625 30.05125 39.8125 29.5625 C37.59191626 27.64820367 35.86624291 27.38733012 33 27 C33 26.34 33 25.68 33 25 C32.27039062 24.88785156 31.54078125 24.77570313 30.7890625 24.66015625 C27.89352663 23.97479832 25.91176142 22.9674025 23.375 21.4375 C19.9578698 19.35486137 19.9578698 19.35486137 16 19 C15.67 18.01 15.34 17.02 15 16 C14.01 16 13.02 16 12 16 C11.67 15.01 11.34 14.02 11 13 C9.50157765 11.51518743 9.50157765 11.51518743 7.6875 10.125 C4.70672516 7.65942082 2.22182567 5.19942897 0 2 C0 1.34 0 0.68 0 0 Z " fill="#10172A" transform="translate(27,469)"/>
<path d="M0 0 C2.5625 -0.5 2.5625 -0.5 6 0 C8.66260859 2.39985116 10.77946173 5.19565825 13 8 C15.31374909 10.42136532 17.46514453 12.61796038 20.1875 14.5625 C22 16 22 16 22.88671875 17.78125 C24.65838902 21.31215776 27.15933287 24.32262932 29.5390625 27.46484375 C31.15369347 30.26670337 31.30681236 31.82392391 31 35 C28.38794457 32.62893778 26.78125737 30.09509067 25 27.0625 C18.84994345 17.27419946 11.02684592 9.3560911 1.80078125 2.42578125 C1.20652344 1.95527344 0.61226563 1.48476563 0 1 C0 0.67 0 0.34 0 0 Z " fill="#0D152C" transform="translate(460,19)"/>
<path d="M0 0 C0.99 0.33 1.98 0.66 3 1 C2.31292969 1.59167969 1.62585938 2.18335938 0.91796875 2.79296875 C-0.43361328 3.97826172 -0.43361328 3.97826172 -1.8125 5.1875 C-2.70582031 5.96480469 -3.59914063 6.74210938 -4.51953125 7.54296875 C-6.90933639 9.91019305 -8.33451693 12.10681798 -10 15 C-11.88241616 16.93989452 -13.81383083 18.37200168 -16 20 C-16.66 20 -17.32 20 -18 20 C-18.309375 20.8353125 -18.309375 20.8353125 -18.625 21.6875 C-21.45711688 26.45060566 -26.27562321 29.31859696 -31 32 C-31.99 32.66 -32.98 33.32 -34 34 C-32.66420352 31.02363795 -31.20765397 28.96048142 -28.875 26.6875 C-28.06675781 25.88892578 -28.06675781 25.88892578 -27.2421875 25.07421875 C-25.29742568 23.27514467 -23.32097595 21.53294897 -21.3203125 19.796875 C-16.77038237 15.83320005 -12.38058155 11.71152568 -8 7.5625 C-7.22527344 6.83095703 -6.45054687 6.09941406 -5.65234375 5.34570312 C-3.766997 3.56509786 -1.88290809 1.78318322 0 0 Z " fill="#182236" transform="translate(305,191)"/>
<path d="M0 0 C0.33 0 0.66 0 1 0 C1.23074219 1.29292969 1.46148437 2.58585937 1.69921875 3.91796875 C3.42658757 13.23678705 5.28783049 21.86903709 9.14453125 30.56640625 C10 33 10 33 9 36 C8.505 34.515 8.505 34.515 8 33 C7.34 33 6.68 33 6 33 C6 32.34 6 31.68 6 31 C5.34 30.67 4.68 30.34 4 30 C4 28.68 4 27.36 4 26 C3.34 25.67 2.68 25.34 2 25 C-0.32791217 17.92015703 -3.55936739 7.11873479 0 0 Z " fill="#121B30" transform="translate(1,410)"/>
<path d="M0 0 C0 3.6493026 -0.61297802 3.9972785 -3.10546875 6.50390625 C-3.75966797 7.16197266 -4.41386719 7.82003906 -5.08789062 8.49804688 C-5.78076172 9.17931641 -6.47363281 9.86058594 -7.1875 10.5625 C-7.86103516 11.24763672 -8.53457031 11.93277344 -9.22851562 12.63867188 C-9.88916016 13.29544922 -10.54980469 13.95222656 -11.23046875 14.62890625 C-11.83270264 15.22775635 -12.43493652 15.82660645 -13.05541992 16.44360352 C-15.25127024 18.20111083 -17.35599677 19.07837602 -20 20 C-11.0839971 7.26285301 -11.0839971 7.26285301 -8.05078125 6.52734375 C-5.51290191 5.87474621 -4.52522167 4.83375952 -2.75 2.9375 C-2.22921875 2.38964844 -1.7084375 1.84179688 -1.171875 1.27734375 C-0.78515625 0.85582031 -0.3984375 0.43429687 0 0 Z M-22 21 C-22 24 -22 24 -24.1875 26.48046875 C-25.115625 27.37378906 -26.04375 28.26710938 -27 29.1875 C-27.928125 30.08855469 -28.85625 30.98960937 -29.8125 31.91796875 C-30.534375 32.60503906 -31.25625 33.29210937 -32 34 C-32 31 -32 31 -29.8125 28.51953125 C-28.884375 27.62621094 -27.95625 26.73289062 -27 25.8125 C-26.071875 24.91144531 -25.14375 24.01039063 -24.1875 23.08203125 C-23.1046875 22.05142578 -23.1046875 22.05142578 -22 21 Z " fill="#192E52" transform="translate(132,354)"/>
<path d="M0 0 C0.99 0 1.98 0 3 0 C1.06574317 4.0367099 -1.29437744 7.76799903 -3.66015625 11.5625 C-5.81374875 15.48040589 -6.13138102 18.88286106 -6.20532227 23.31933594 C-6.22526749 24.38013367 -6.24521271 25.4409314 -6.26576233 26.53387451 C-6.28247482 27.67253967 -6.29918732 28.81120483 -6.31640625 29.984375 C-6.33718735 31.15510559 -6.35796844 32.32583618 -6.37937927 33.53204346 C-6.44475628 37.27130269 -6.50370491 41.01063205 -6.5625 44.75 C-6.60569647 47.2851635 -6.64931112 49.82031991 -6.69335938 52.35546875 C-6.80042559 58.5702384 -6.9022141 64.78507778 -7 71 C-7.33 71 -7.66 71 -8 71 C-8.15312746 63.38714608 -8.2576234 55.77469458 -8.32958984 48.16064453 C-8.35961556 45.57488158 -8.4004493 42.98921921 -8.45263672 40.40380859 C-8.52607465 36.66999382 -8.559601 32.93753453 -8.5859375 29.203125 C-8.63238907 27.49144135 -8.63238907 27.49144135 -8.67977905 25.74517822 C-8.68331465 17.16154171 -6.28629651 11.35354085 -2 4 C-1.32268199 2.67204573 -0.65144775 1.34083483 0 0 Z " fill="#11141E" transform="translate(102,317)"/>
<path d="M0 0 C0.66 0.33 1.32 0.66 2 1 C0.84032094 2.36015549 -0.3282477 3.71273149 -1.5 5.0625 C-2.1496875 5.81660156 -2.799375 6.57070312 -3.46875 7.34765625 C-5.44631994 9.41983216 -7.39453646 11.23967327 -9.5625 13.09375 C-15.15861366 17.91719764 -20.30228972 23.19486495 -25.5 28.4375 C-26.52320139 29.4657298 -27.54663733 30.49372626 -28.5703125 31.52148438 C-31.04957999 34.01164338 -33.52567538 36.50492833 -36 39 C-36 36 -36 36 -34.63330078 34.27253723 C-33.99376465 33.63966293 -33.35422852 33.00678864 -32.6953125 32.35473633 C-31.97456543 31.63421585 -31.25381836 30.91369537 -30.51123047 30.17134094 C-29.72377441 29.39936874 -28.93631836 28.62739655 -28.125 27.83203125 C-27.32594238 27.03721848 -26.52688477 26.2424057 -25.70361328 25.42350769 C-23.14267606 22.87940146 -20.57151863 20.34590608 -18 17.8125 C-16.26494326 16.0924843 -14.53055926 14.3717897 -12.796875 12.65039062 C-8.53903311 8.42567671 -4.27274757 4.20963524 0 0 Z " fill="#0E131D" transform="translate(366,165)"/>
<path d="M0 0 C-1.41815957 4.42975687 -3.59023341 6.99447466 -6.875 10.25 C-7.73867188 11.12140625 -8.60234375 11.9928125 -9.4921875 12.890625 C-11.95122596 14.9589751 -12.98943063 15.37945407 -16 16 C-17.95826419 17.3867198 -17.95826419 17.3867198 -19.75 19.0625 C-20.36359375 19.61035156 -20.9771875 20.15820312 -21.609375 20.72265625 C-22.29773438 21.35494141 -22.29773438 21.35494141 -23 22 C-19.90003871 15.09280471 -13.42923865 10.41855795 -7.79296875 5.578125 C-6.34479809 4.30348242 -4.97133859 2.94426856 -3.625 1.5625 C-2 0 -2 0 0 0 Z " fill="#192337" transform="translate(379,125)"/>
<path d="M0 0 C0.66 0.33 1.32 0.66 2 1 C1.06027344 1.90492188 1.06027344 1.90492188 0.1015625 2.828125 C-0.71570313 3.62734375 -1.53296875 4.4265625 -2.375 5.25 C-3.18710938 6.03890625 -3.99921875 6.8278125 -4.8359375 7.640625 C-6.78097354 9.76120581 -7.80018173 11.43675188 -9 14 C-11.83963953 16.54073011 -14.59074283 18.35035944 -18 20 C-19.35113205 20.97581759 -20.68946944 21.97029741 -22 23 C-18.64495113 14.98106452 -10.08035231 8.90456263 -3.59375 3.375 C-2.34946955 2.30150314 -1.16203041 1.16203041 0 0 Z " fill="#172032" transform="translate(177,310)"/>
<path d="M0 0 C0.99 0.33 1.98 0.66 3 1 C-2.04901673 7.53507485 -2.04901673 7.53507485 -5.8125 9.375 C-10.77000503 11.90235551 -14.21079228 15.98343982 -18 20 C-18 17 -18 17 -16.09375 14.765625 C-13.40927639 12.16200903 -10.72065159 9.56584922 -8 7 C-7.22785156 6.25878906 -6.45570313 5.51757812 -5.66015625 4.75390625 C-1.69578418 1.08483191 -1.69578418 1.08483191 0 0 Z " fill="#172031" transform="translate(408,97)"/>
<path d="M0 0 C5.40180849 1.75284893 10.69122944 3.75214719 15.99023438 5.7890625 C20.28271332 7.41880522 24.56802181 8.79810761 29 10 C27.68 10.99 26.36 11.98 25 13 C24.67 12.01 24.34 11.02 24 10 C23.01 10 22.02 10 21 10 C20.67 10.66 20.34 11.32 20 12 C19.608125 11.525625 19.21625 11.05125 18.8125 10.5625 C16.59191626 8.64820367 14.86624291 8.38733012 12 8 C12 7.34 12 6.68 12 6 C11.319375 5.9175 10.63875 5.835 9.9375 5.75 C6.1253093 4.77667472 3.35929671 3.04192545 0 1 C0 0.67 0 0.34 0 0 Z " fill="#172A46" transform="translate(48,488)"/>
<path d="M0 0 C0 3 0 3 -1.71484375 4.97265625 C-2.44832031 5.66230469 -3.18179688 6.35195313 -3.9375 7.0625 C-6.86434414 9.73700793 -6.86434414 9.73700793 -9 13 C-10.66279327 14.0064275 -12.32983484 15.00585407 -14 16 C-15.75149165 17.58245275 -15.75149165 17.58245275 -17 19 C-17.66 18.67 -18.32 18.34 -19 18 C-18.37351563 17.39671875 -17.74703125 16.7934375 -17.1015625 16.171875 C-16.28429687 15.37265625 -15.46703125 14.5734375 -14.625 13.75 C-13.40683594 12.56664062 -13.40683594 12.56664062 -12.1640625 11.359375 C-10.22935126 9.25005083 -9.21289865 7.54022171 -8 5 C-6.67203709 4.64587656 -5.33783393 4.31478446 -4 4 C-1.77022004 2.02098426 -1.77022004 2.02098426 0 0 Z " fill="#1B2E51" transform="translate(188,302)"/>
<path d="M0 0 C0 3 0 3 -1.5 4.6875 C-1.995 5.120625 -2.49 5.55375 -3 6 C-3.66 5.67 -4.32 5.34 -5 5 C-3.35 3.35 -1.7 1.7 0 0 Z M-8 5 C-7.01 5.33 -6.02 5.66 -5 6 C-6.56583596 10.03721561 -9.44173865 12.47070582 -12.625 15.25 C-13.140625 15.70890625 -13.65625 16.1678125 -14.1875 16.640625 C-15.4534602 17.76592296 -16.72607942 18.88372177 -18 20 C-18.66 19.67 -19.32 19.34 -20 19 C-18.54474941 17.51780033 -17.085701 16.03932861 -15.625 14.5625 C-14.81289063 13.73878906 -14.00078125 12.91507813 -13.1640625 12.06640625 C-11 10 -11 10 -9 9 C-9 8.01 -9 7.02 -9 6 C-8.67 5.67 -8.34 5.34 -8 5 Z " fill="#1C2F4F" transform="translate(316,183)"/>
<path d="M0 0 C4.13123342 3.65455264 7.34045281 8.18621958 10 13 C10 13.99 10 14.98 10 16 C8.1875 15.875 8.1875 15.875 6 15 C4.375 12.0625 4.375 12.0625 3 9 C2.34 8.34 1.68 7.68 1 7 C0.59952556 4.67724823 0.2602896 2.34260643 0 0 Z " fill="#0B1625" transform="translate(13,450)"/>
<path d="M0 0 C1.98 0 3.96 0 6 0 C6 0.66 6 1.32 6 2 C8.64 2.66 11.28 3.32 14 4 C14 4.66 14 5.32 14 6 C15.32 5.67 16.64 5.34 18 5 C18.33 6.32 18.66 7.64 19 9 C14.53202662 7.60121198 10.36177921 5.86369228 6.125 3.875 C4.97257812 3.33617187 3.82015625 2.79734375 2.6328125 2.2421875 C1.76398438 1.83226562 0.89515625 1.42234375 0 1 C0 0.67 0 0.34 0 0 Z " fill="#1B2E4E" transform="translate(437,6)"/>
<path d="M0 0 C0.33 0.66 0.66 1.32 1 2 C0.2265625 2.31453125 -0.546875 2.6290625 -1.34375 2.953125 C-6.19374386 4.94594426 -10.98491132 6.92653992 -15.625 9.375 C-16.73875 9.91125 -17.8525 10.4475 -19 11 C-19.66 10.67 -20.32 10.34 -21 10 C-18.43170935 6.8609781 -15.79249805 6.22804699 -12 5 C-9.86734573 4.14382493 -7.74212089 3.26889549 -5.625 2.375 C-4.56539062 1.92898437 -3.50578125 1.48296875 -2.4140625 1.0234375 C-1.61742188 0.68570312 -0.82078125 0.34796875 0 0 Z " fill="#263C58" transform="translate(64,5)"/>
<path d="M0 0 C0.99 0.33 1.98 0.66 3 1 C-0.31457218 5.69564393 -4.36279281 8.72469104 -9 12 C-9.66 11.67 -10.32 11.34 -11 11 C-7.37 7.37 -3.74 3.74 0 0 Z " fill="#202838" transform="translate(321,209)"/>
<path d="M0 0 C-1.92946028 1.36707496 -3.86710477 2.71844954 -5.8125 4.0625 C-7.43091797 5.19365234 -7.43091797 5.19365234 -9.08203125 6.34765625 C-10.52642578 7.16556641 -10.52642578 7.16556641 -12 8 C-12.99 7.67 -13.98 7.34 -15 7 C-15 6.34 -15 5.68 -15 5 C-14.01 5 -13.02 5 -12 5 C-12 4.34 -12 3.68 -12 3 C-3.33333333 -1.66666667 -3.33333333 -1.66666667 0 0 Z " fill="#101624" transform="translate(51,14)"/>
<path d="M0 0 C0.66 0.33 1.32 0.66 2 1 C-2.15207792 5.2626362 -6.36321221 9.26795129 -11 13 C-11.66 12.67 -12.32 12.34 -13 12 C-12.360625 11.21625 -11.72125 10.4325 -11.0625 9.625 C-9.01857687 7.20460719 -9.01857687 7.20460719 -8 5 C-7.401875 4.87625 -6.80375 4.7525 -6.1875 4.625 C-3.29805668 3.79944477 -1.98392064 2.19648357 0 0 Z " fill="#1B2E4E" transform="translate(161,327)"/>
<path d="M0 0 C0.66 0.33 1.32 0.66 2 1 C0.54782324 2.50596108 -0.91192861 4.00462104 -2.375 5.5 C-3.18710937 6.3353125 -3.99921875 7.170625 -4.8359375 8.03125 C-7 10 -7 10 -9 10 C-9.33 9.01 -9.66 8.02 -10 7 C-7.75552339 4.4188519 -6.2506864 3.8126716 -3 3 C-1.26973898 1.52109931 -1.26973898 1.52109931 0 0 Z " fill="#1E2F4C" transform="translate(276,220)"/>
<path d="M0 0 C0.33 0.99 0.66 1.98 1 3 C-2.63 6.63 -6.26 10.26 -10 14 C-10 9.84439769 -7.7179548 8.15900671 -5 5.3125 C-4.52304688 4.80138672 -4.04609375 4.29027344 -3.5546875 3.76367188 C-2.37640085 2.50290516 -1.18904747 1.25062314 0 0 Z " fill="#192E52" transform="translate(114,170)"/>
<path d="M0 0 C0 0.99 0 1.98 0 3 C0.66 3.66 1.32 4.32 2 5 C-0.80804268 7.96404505 -3.18315774 10.44499019 -7 12 C-7.33 11.34 -7.66 10.68 -8 10 C-7.195625 9.608125 -6.39125 9.21625 -5.5625 8.8125 C-2.77454679 7.24990418 -2.77454679 7.24990418 -2.3125 4.4375 C-2.1578125 3.2309375 -2.1578125 3.2309375 -2 2 C-1.34 1.34 -0.68 0.68 0 0 Z " fill="#24394F" transform="translate(476,465)"/>
<path d="M0 0 C-3.79692186 2.82561627 -6.18569279 4.56638908 -11 4 C-11 3.34 -11 2.68 -11 2 C-3.57142857 -1.57142857 -3.57142857 -1.57142857 0 0 Z " fill="#141E31" transform="translate(141,154)"/>
<path d="M0 0 C0.33 0.66 0.66 1.32 1 2 C0.22265625 3.7265625 0.22265625 3.7265625 -0.9375 5.625 C-1.618125 6.73875 -2.29875 7.8525 -3 9 C-3.66 9 -4.32 9 -5 9 C-4.125 3.25 -4.125 3.25 -3 1 C-2.01 0.67 -1.02 0.34 0 0 Z " fill="#0E2031" transform="translate(16,43)"/>
<path d="M0 0 C0.66 0.33 1.32 0.66 2 1 C0.76110404 2.48847937 -0.4915672 3.96550105 -1.75 5.4375 C-2.79414063 6.67306641 -2.79414063 6.67306641 -3.859375 7.93359375 C-6.01343015 10.01296451 -7.08310781 10.63867326 -10 11 C-6.79239749 7.19364503 -3.59253891 3.45436433 0 0 Z " fill="#181E2A" transform="translate(366,165)"/>
<path d="M0 0 C0.66 0.33 1.32 0.66 2 1 C1.4375 2.9375 1.4375 2.9375 0 5 C-3.625 5.75 -3.625 5.75 -7 6 C-7 5.34 -7 4.68 -7 4 C-1.7265625 0.77734375 -1.7265625 0.77734375 0 0 Z " fill="#0E1525" transform="translate(457,483)"/>
<path d="M0 0 C1 3 1 3 0 6 C-2.31 6.33 -4.62 6.66 -7 7 C-4.78071806 4.09197539 -3.07030857 2.04687238 0 0 Z " fill="#0E1630" transform="translate(482,462)"/>
<path d="M0 0 C-1.78614318 1.03046722 -3.57910018 2.04913236 -5.375 3.0625 C-6.87160156 3.91521484 -6.87160156 3.91521484 -8.3984375 4.78515625 C-9.25695312 5.18605469 -10.11546875 5.58695312 -11 6 C-11.66 5.67 -12.32 5.34 -13 5 C-12.175 4.360625 -11.35 3.72125 -10.5 3.0625 C-9.675 2.381875 -8.85 1.70125 -8 1 C-8 0.67 -8 0.34 -8 0 C-2.25 -1.125 -2.25 -1.125 0 0 Z " fill="#151C29" transform="translate(182,334)"/>
<path d="M0 0 C0.99 0.33 1.98 0.66 3 1 C1.02 3.31 -0.96 5.62 -3 8 C-3.66 7.67 -4.32 7.34 -5 7 C-4.360625 6.21625 -3.72125 5.4325 -3.0625 4.625 C-1.01857687 2.20460719 -1.01857687 2.20460719 0 0 Z M-7 9 C-7 9.99 -7 10.98 -7 12 C-7.66 11.67 -8.32 11.34 -9 11 C-8.34 10.34 -7.68 9.68 -7 9 Z " fill="#1D2F4E" transform="translate(331,167)"/>
<path d="M0 0 C1.875 0.1875 1.875 0.1875 4 1 C5.52164099 3.89111788 6 5.71823412 6 9 C1.3125 5.484375 1.3125 5.484375 0 4 C0 2.68 0 1.36 0 0 Z " fill="#171F34" transform="translate(479,34)"/>
<path d="M0 0 C0.66 0.33 1.32 0.66 2 1 C-1.75 6.875 -1.75 6.875 -4 8 C-4.66 7.67 -5.32 7.34 -6 7 C-4.77065985 3.31197956 -3.06140622 2.27643027 0 0 Z " fill="#1F2F49" transform="translate(334,182)"/>
<path d="M0 0 C-0.25 1.875 -0.25 1.875 -1 4 C-3.0625 5.25 -3.0625 5.25 -5 6 C-5.66 5.34 -6.32 4.68 -7 4 C-2.25 0 -2.25 0 0 0 Z " fill="#0D142E" transform="translate(469,476)"/>
<path d="M0 0 C0.99 0.33 1.98 0.66 3 1 C1.68 2.65 0.36 4.3 -1 6 C-1.66 5.67 -2.32 5.34 -3 5 C-2.01 3.35 -1.02 1.7 0 0 Z M-4 6 C-4 6.99 -4 7.98 -4 9 C-4.99 9 -5.98 9 -7 9 C-6.01 8.01 -5.02 7.02 -4 6 Z " fill="#1E2F4C" transform="translate(354,146)"/>
<path d="M0 0 C1.32 0 2.64 0 4 0 C3.67 0.99 3.34 1.98 3 3 C2.01 3 1.02 3 0 3 C-0.33 3.99 -0.66 4.98 -1 6 C-1.66 5.34 -2.32 4.68 -3 4 C-1.75 2 -1.75 2 0 0 Z " fill="#131D40" transform="translate(460,481)"/>
<path d="M0 0 C0.66 0.33 1.32 0.66 2 1 C0.8125 3.4375 0.8125 3.4375 -1 6 C-3.6875 6.8125 -3.6875 6.8125 -6 7 C-4.77065985 3.31197956 -3.06140622 2.27643027 0 0 Z " fill="#243450" transform="translate(142,358)"/>
<path d="M0 0 C0.66 0.33 1.32 0.66 2 1 C-2.75 6.75 -2.75 6.75 -5 9 C-5.66 8.34 -6.32 7.68 -7 7 C-4.69 4.69 -2.38 2.38 0 0 Z " fill="#203253" transform="translate(202,303)"/>
<path d="M0 0 C0 3 0 3 -1.125 4.625 C-3.64613093 6.47382935 -5.93350175 6.65927797 -9 7 C-6.71973999 3.57960999 -6.6132423 3.87593753 -3 3 C-1.26973898 1.52109931 -1.26973898 1.52109931 0 0 Z " fill="#21314B" transform="translate(220,272)"/>
<path d="M0 0 C-1.39332574 3.36720387 -2.9789286 4.9859524 -6 7 C-6 4 -6 4 -4.125 1.8125 C-2 0 -2 0 0 0 Z " fill="#232A3A" transform="translate(124,361)"/>
<path d="M0 0 C0.99 0 1.98 0 3 0 C1.55746343 3.36591866 -0.33264727 5.51047079 -3 8 C-2.37240135 5.07120629 -1.41377341 2.63904371 0 0 Z " fill="#171E2B" transform="translate(102,317)"/>
<path d="M0 0 C0.99 0.33 1.98 0.66 3 1 C1.68 2.65 0.36 4.3 -1 6 C-1.99 5.67 -2.98 5.34 -4 5 C-3.01 4.67 -2.02 4.34 -1 4 C-0.26676204 1.98491642 -0.26676204 1.98491642 0 0 Z " fill="#222B3C" transform="translate(265,164)"/>
<path d="M0 0 C0 3 0 3 -1.375 4.6875 C-3 6 -3 6 -5 6 C-5.33 5.01 -5.66 4.02 -6 3 C-4.02 2.01 -2.04 1.02 0 0 Z " fill="#0E1424" transform="translate(20,38)"/>
<path d="" fill="#000000" transform="translate(0,0)"/>
<path d="" fill="#000080" transform="translate(0,0)"/>
<path d="" fill="#000000" transform="translate(0,0)"/>
<path d="" fill="#000000" transform="translate(0,0)"/>
<path d="" fill="#000000" transform="translate(0,0)"/>
<path d="" fill="#000000" transform="translate(0,0)"/>
<path d="" fill="#000000" transform="translate(0,0)"/>
<path d="" fill="#000000" transform="translate(0,0)"/>
<path d="" fill="#000000" transform="translate(0,0)"/>
<path d="" fill="#000080" transform="translate(0,0)"/>
</svg>
